<?xml version="1.0" encoding="UTF-8"?>
<!DOCTYPE svg PUBLIC "-//W3C//DTD SVG 1.1//EN" "http://www.w3.org/Graphics/SVG/1.1/DTD/svg11.dtd">
<svg xmlns="http://www.w3.org/2000/svg" version="1.1" width="60px" height="57px" style="shape-rendering:geometricPrecision; text-rendering:geometricPrecision; image-rendering:optimizeQuality; fill-rule:evenodd; clip-rule:evenodd" xmlns:xlink="http://www.w3.org/1999/xlink">
<g><path style="opacity:1" fill="#d5db93" d="M 1.5,-0.5 C 13.8333,-0.5 26.1667,-0.5 38.5,-0.5C 38.5,5.16667 38.5,10.8333 38.5,16.5C 31.8333,16.5 25.1667,16.5 18.5,16.5C 18.5,23.1667 18.5,29.8333 18.5,36.5C 12.8333,36.5 7.16667,36.5 1.5,36.5C 1.5,24.1667 1.5,11.8333 1.5,-0.5 Z"/></g>
<g><path style="opacity:1" fill="#73a5c7" d="M 41.5,-0.5 C 47.1667,-0.5 52.8333,-0.5 58.5,-0.5C 58.5,5.16667 58.5,10.8333 58.5,16.5C 52.8333,16.5 47.1667,16.5 41.5,16.5C 41.5,10.8333 41.5,5.16667 41.5,-0.5 Z"/></g>
<g><path style="opacity:1" fill="#73a5c7" d="M 21.5,19.5 C 27.1667,19.5 32.8333,19.5 38.5,19.5C 38.5,25.1667 38.5,30.8333 38.5,36.5C 32.8333,36.5 27.1667,36.5 21.5,36.5C 21.5,30.8333 21.5,25.1667 21.5,19.5 Z"/></g>
<g><path style="opacity:1" fill="#d5db93" d="M 58.5,56.5 C 46.1667,56.5 33.8333,56.5 21.5,56.5C 21.5,50.8333 21.5,45.1667 21.5,39.5C 28.1667,39.5 34.8333,39.5 41.5,39.5C 41.5,32.8333 41.5,26.1667 41.5,19.5C 47.1667,19.5 52.8333,19.5 58.5,19.5C 58.5,31.8333 58.5,44.1667 58.5,56.5 Z"/></g>
<g><path style="opacity:1" fill="#73a5c7" d="M 18.5,56.5 C 12.8333,56.5 7.16667,56.5 1.5,56.5C 1.5,50.8333 1.5,45.1667 1.5,39.5C 7.16667,39.5 12.8333,39.5 18.5,39.5C 18.5,45.1667 18.5,50.8333 18.5,56.5 Z"/></g>
</svg>
